<mxfile host="app.diagrams.net" modified="2024-02-05T17:47:40.213Z" agent="Mozilla/5.0 (X11; Linux x86_64; rv:109.0) Gecko/20100101 Firefox/119.0" etag="TfPtkca_P2cicT8DxTFM" version="23.1.1" type="device">
  <diagram name="Page-1" id="5_QPSccvKa1tlbHzPFQL">
    <mxGraphModel dx="1434" dy="822" grid="1" gridSize="10" guides="1" tooltips="1" connect="1" arrows="1" fold="1" page="1" pageScale="1" pageWidth="850" pageHeight="1100" math="0" shadow="0">
      <root>
        <mxCell id="0" />
        <mxCell id="1" parent="0" />
        <mxCell id="F_Cgu34WCv1JmDP2PbKe-1" value="&lt;div&gt;:WasteManagementSystem&lt;/div&gt;" style="rounded=0;whiteSpace=wrap;html=1;" parent="1" vertex="1">
          <mxGeometry x="240" y="78" width="160" height="60" as="geometry" />
        </mxCell>
        <mxCell id="F_Cgu34WCv1JmDP2PbKe-2" value="Actor" style="shape=umlActor;verticalLabelPosition=bottom;verticalAlign=top;html=1;outlineConnect=0;" parent="1" vertex="1">
          <mxGeometry x="50" y="68" width="30" height="60" as="geometry" />
        </mxCell>
        <mxCell id="F_Cgu34WCv1JmDP2PbKe-4" value="" style="endArrow=none;dashed=1;html=1;strokeWidth=1;rounded=0;" parent="1" edge="1">
          <mxGeometry width="50" height="50" relative="1" as="geometry">
            <mxPoint x="64.66" y="328" as="sourcePoint" />
            <mxPoint x="64.66" y="148" as="targetPoint" />
          </mxGeometry>
        </mxCell>
        <mxCell id="F_Cgu34WCv1JmDP2PbKe-5" value="" style="endArrow=none;dashed=1;html=1;strokeWidth=1;rounded=0;" parent="1" edge="1">
          <mxGeometry width="50" height="50" relative="1" as="geometry">
            <mxPoint x="320" y="328" as="sourcePoint" />
            <mxPoint x="319.65999999999997" y="138" as="targetPoint" />
          </mxGeometry>
        </mxCell>
        <mxCell id="F_Cgu34WCv1JmDP2PbKe-7" value="" style="endArrow=classic;html=1;rounded=0;" parent="1" edge="1">
          <mxGeometry width="50" height="50" relative="1" as="geometry">
            <mxPoint x="70" y="198" as="sourcePoint" />
            <mxPoint x="320" y="198" as="targetPoint" />
          </mxGeometry>
        </mxCell>
        <mxCell id="F_Cgu34WCv1JmDP2PbKe-8" value="" style="endArrow=classic;html=1;rounded=0;dashed=1;strokeWidth=2;" parent="1" edge="1">
          <mxGeometry width="50" height="50" relative="1" as="geometry">
            <mxPoint x="320" y="268" as="sourcePoint" />
            <mxPoint x="70" y="270" as="targetPoint" />
          </mxGeometry>
        </mxCell>
        <mxCell id="F_Cgu34WCv1JmDP2PbKe-9" value="&lt;div&gt;login(email, password)&lt;/div&gt;" style="text;html=1;align=center;verticalAlign=middle;resizable=0;points=[];autosize=1;strokeColor=none;fillColor=none;" parent="1" vertex="1">
          <mxGeometry x="120" y="166" width="140" height="30" as="geometry" />
        </mxCell>
        <mxCell id="F_Cgu34WCv1JmDP2PbKe-10" value="&lt;div&gt;home page&lt;/div&gt;" style="text;html=1;align=center;verticalAlign=middle;resizable=0;points=[];autosize=1;strokeColor=none;fillColor=none;" parent="1" vertex="1">
          <mxGeometry x="150" y="268" width="80" height="30" as="geometry" />
        </mxCell>
        <mxCell id="F_Cgu34WCv1JmDP2PbKe-11" value="&lt;div&gt;:WasteManagementSystem&lt;/div&gt;" style="rounded=0;whiteSpace=wrap;html=1;" parent="1" vertex="1">
          <mxGeometry x="650" y="50" width="160" height="60" as="geometry" />
        </mxCell>
        <mxCell id="F_Cgu34WCv1JmDP2PbKe-12" value="Actor" style="shape=umlActor;verticalLabelPosition=bottom;verticalAlign=top;html=1;outlineConnect=0;" parent="1" vertex="1">
          <mxGeometry x="460" y="40" width="30" height="60" as="geometry" />
        </mxCell>
        <mxCell id="F_Cgu34WCv1JmDP2PbKe-14" value="" style="endArrow=none;dashed=1;html=1;strokeWidth=1;rounded=0;" parent="1" edge="1">
          <mxGeometry width="50" height="50" relative="1" as="geometry">
            <mxPoint x="730" y="330" as="sourcePoint" />
            <mxPoint x="729.66" y="110" as="targetPoint" />
          </mxGeometry>
        </mxCell>
        <mxCell id="F_Cgu34WCv1JmDP2PbKe-15" value="" style="endArrow=classic;html=1;rounded=0;" parent="1" edge="1">
          <mxGeometry width="50" height="50" relative="1" as="geometry">
            <mxPoint x="480" y="160" as="sourcePoint" />
            <mxPoint x="730" y="160" as="targetPoint" />
          </mxGeometry>
        </mxCell>
        <mxCell id="F_Cgu34WCv1JmDP2PbKe-16" value="" style="endArrow=classic;html=1;rounded=0;dashed=1;strokeWidth=2;" parent="1" edge="1">
          <mxGeometry width="50" height="50" relative="1" as="geometry">
            <mxPoint x="730" y="240" as="sourcePoint" />
            <mxPoint x="483.5" y="240" as="targetPoint" />
            <Array as="points">
              <mxPoint x="600" y="240" />
            </Array>
          </mxGeometry>
        </mxCell>
        <mxCell id="F_Cgu34WCv1JmDP2PbKe-19" value="search(type)" style="text;html=1;align=center;verticalAlign=middle;resizable=0;points=[];autosize=1;strokeColor=none;fillColor=none;" parent="1" vertex="1">
          <mxGeometry x="560" y="128" width="90" height="30" as="geometry" />
        </mxCell>
        <mxCell id="F_Cgu34WCv1JmDP2PbKe-22" value="" style="endArrow=none;dashed=1;html=1;strokeWidth=1;rounded=0;" parent="1" edge="1">
          <mxGeometry width="50" height="50" relative="1" as="geometry">
            <mxPoint x="475" y="330" as="sourcePoint" />
            <mxPoint x="474.65999999999997" y="120" as="targetPoint" />
          </mxGeometry>
        </mxCell>
        <mxCell id="F_Cgu34WCv1JmDP2PbKe-23" value="&lt;div&gt;type&lt;/div&gt;" style="shape=umlFrame;whiteSpace=wrap;html=1;pointerEvents=0;" parent="1" vertex="1">
          <mxGeometry x="455" y="180" width="300" height="150" as="geometry" />
        </mxCell>
        <mxCell id="F_Cgu34WCv1JmDP2PbKe-24" value="&lt;div&gt;[categories]&lt;/div&gt;" style="text;html=1;align=center;verticalAlign=middle;resizable=0;points=[];autosize=1;strokeColor=none;fillColor=none;" parent="1" vertex="1">
          <mxGeometry x="473.5" y="210" width="90" height="30" as="geometry" />
        </mxCell>
        <mxCell id="F_Cgu34WCv1JmDP2PbKe-25" value="" style="endArrow=none;dashed=1;html=1;strokeWidth=1;rounded=0;exitX=0.005;exitY=0.534;exitDx=0;exitDy=0;exitPerimeter=0;" parent="1" edge="1">
          <mxGeometry width="50" height="50" relative="1" as="geometry">
            <mxPoint x="460" y="264.76" as="sourcePoint" />
            <mxPoint x="750" y="265" as="targetPoint" />
          </mxGeometry>
        </mxCell>
        <mxCell id="F_Cgu34WCv1JmDP2PbKe-26" value="" style="endArrow=classic;html=1;rounded=0;dashed=1;strokeWidth=2;" parent="1" edge="1">
          <mxGeometry width="50" height="50" relative="1" as="geometry">
            <mxPoint x="730" y="300" as="sourcePoint" />
            <mxPoint x="478.5" y="300" as="targetPoint" />
          </mxGeometry>
        </mxCell>
        <mxCell id="F_Cgu34WCv1JmDP2PbKe-27" value="&lt;div&gt;[items]&lt;/div&gt;" style="text;html=1;align=center;verticalAlign=middle;resizable=0;points=[];autosize=1;strokeColor=none;fillColor=none;" parent="1" vertex="1">
          <mxGeometry x="473.5" y="268" width="60" height="30" as="geometry" />
        </mxCell>
        <mxCell id="F_Cgu34WCv1JmDP2PbKe-28" value="&lt;div&gt;category search page&lt;/div&gt;" style="text;html=1;align=center;verticalAlign=middle;resizable=0;points=[];autosize=1;strokeColor=none;fillColor=none;" parent="1" vertex="1">
          <mxGeometry x="533.5" y="235" width="140" height="30" as="geometry" />
        </mxCell>
        <mxCell id="F_Cgu34WCv1JmDP2PbKe-29" value="&lt;div&gt;item search page&lt;/div&gt;" style="text;html=1;align=center;verticalAlign=middle;resizable=0;points=[];autosize=1;strokeColor=none;fillColor=none;" parent="1" vertex="1">
          <mxGeometry x="550" y="298" width="120" height="30" as="geometry" />
        </mxCell>
        <mxCell id="F_Cgu34WCv1JmDP2PbKe-47" value="&lt;div&gt;:WasteManagementSystem&lt;/div&gt;" style="rounded=0;whiteSpace=wrap;html=1;" parent="1" vertex="1">
          <mxGeometry x="230" y="370" width="160" height="60" as="geometry" />
        </mxCell>
        <mxCell id="F_Cgu34WCv1JmDP2PbKe-48" value="Actor" style="shape=umlActor;verticalLabelPosition=bottom;verticalAlign=top;html=1;outlineConnect=0;" parent="1" vertex="1">
          <mxGeometry x="40" y="360" width="30" height="60" as="geometry" />
        </mxCell>
        <mxCell id="F_Cgu34WCv1JmDP2PbKe-49" value="" style="endArrow=none;dashed=1;html=1;strokeWidth=1;rounded=0;" parent="1" edge="1">
          <mxGeometry width="50" height="50" relative="1" as="geometry">
            <mxPoint x="54.65999999999997" y="620" as="sourcePoint" />
            <mxPoint x="54.65999999999997" y="440" as="targetPoint" />
          </mxGeometry>
        </mxCell>
        <mxCell id="F_Cgu34WCv1JmDP2PbKe-50" value="" style="endArrow=none;dashed=1;html=1;strokeWidth=1;rounded=0;" parent="1" edge="1">
          <mxGeometry width="50" height="50" relative="1" as="geometry">
            <mxPoint x="310" y="620" as="sourcePoint" />
            <mxPoint x="309.65999999999997" y="430" as="targetPoint" />
          </mxGeometry>
        </mxCell>
        <mxCell id="F_Cgu34WCv1JmDP2PbKe-51" value="" style="endArrow=classic;html=1;rounded=0;" parent="1" edge="1">
          <mxGeometry width="50" height="50" relative="1" as="geometry">
            <mxPoint x="60" y="490" as="sourcePoint" />
            <mxPoint x="310" y="490" as="targetPoint" />
          </mxGeometry>
        </mxCell>
        <mxCell id="F_Cgu34WCv1JmDP2PbKe-52" value="" style="endArrow=classic;html=1;rounded=0;dashed=1;strokeWidth=2;" parent="1" edge="1">
          <mxGeometry width="50" height="50" relative="1" as="geometry">
            <mxPoint x="310" y="560" as="sourcePoint" />
            <mxPoint x="60" y="560" as="targetPoint" />
          </mxGeometry>
        </mxCell>
        <mxCell id="F_Cgu34WCv1JmDP2PbKe-53" value="&lt;div&gt;define_category(categoryName)&lt;/div&gt;" style="text;html=1;align=center;verticalAlign=middle;resizable=0;points=[];autosize=1;strokeColor=none;fillColor=none;" parent="1" vertex="1">
          <mxGeometry x="85" y="460" width="190" height="30" as="geometry" />
        </mxCell>
        <mxCell id="F_Cgu34WCv1JmDP2PbKe-54" value="&lt;div&gt;New category confirmation&lt;/div&gt;" style="text;html=1;align=center;verticalAlign=middle;resizable=0;points=[];autosize=1;strokeColor=none;fillColor=none;" parent="1" vertex="1">
          <mxGeometry x="105" y="560" width="170" height="30" as="geometry" />
        </mxCell>
        <mxCell id="TJNr9T1r8Af4dFsGwbRX-1" value="&lt;div&gt;:WasteManagementSystem&lt;/div&gt;" style="rounded=0;whiteSpace=wrap;html=1;" vertex="1" parent="1">
          <mxGeometry x="645" y="370" width="160" height="60" as="geometry" />
        </mxCell>
        <mxCell id="TJNr9T1r8Af4dFsGwbRX-2" value="Actor" style="shape=umlActor;verticalLabelPosition=bottom;verticalAlign=top;html=1;outlineConnect=0;" vertex="1" parent="1">
          <mxGeometry x="455" y="360" width="30" height="60" as="geometry" />
        </mxCell>
        <mxCell id="TJNr9T1r8Af4dFsGwbRX-3" value="" style="endArrow=none;dashed=1;html=1;strokeWidth=1;rounded=0;" edge="1" parent="1">
          <mxGeometry width="50" height="50" relative="1" as="geometry">
            <mxPoint x="725" y="610" as="sourcePoint" />
            <mxPoint x="724.66" y="430" as="targetPoint" />
          </mxGeometry>
        </mxCell>
        <mxCell id="TJNr9T1r8Af4dFsGwbRX-4" value="" style="endArrow=classic;html=1;rounded=0;" edge="1" parent="1">
          <mxGeometry width="50" height="50" relative="1" as="geometry">
            <mxPoint x="475" y="480" as="sourcePoint" />
            <mxPoint x="725" y="480" as="targetPoint" />
          </mxGeometry>
        </mxCell>
        <mxCell id="TJNr9T1r8Af4dFsGwbRX-5" value="&lt;div&gt;add_item(itemName, category, weight, quantity,&lt;/div&gt;&lt;div&gt;&amp;nbsp;expiry_date) &lt;/div&gt;" style="text;html=1;align=center;verticalAlign=middle;resizable=0;points=[];autosize=1;strokeColor=none;fillColor=none;" vertex="1" parent="1">
          <mxGeometry x="465" y="443" width="270" height="40" as="geometry" />
        </mxCell>
        <mxCell id="TJNr9T1r8Af4dFsGwbRX-6" value="" style="endArrow=none;dashed=1;html=1;strokeWidth=1;rounded=0;" edge="1" parent="1">
          <mxGeometry width="50" height="50" relative="1" as="geometry">
            <mxPoint x="470" y="610" as="sourcePoint" />
            <mxPoint x="469.65999999999997" y="440" as="targetPoint" />
          </mxGeometry>
        </mxCell>
        <mxCell id="TJNr9T1r8Af4dFsGwbRX-7" value="" style="endArrow=classic;html=1;rounded=0;dashed=1;strokeWidth=2;" edge="1" parent="1">
          <mxGeometry width="50" height="50" relative="1" as="geometry">
            <mxPoint x="725" y="562" as="sourcePoint" />
            <mxPoint x="470" y="562" as="targetPoint" />
          </mxGeometry>
        </mxCell>
        <mxCell id="TJNr9T1r8Af4dFsGwbRX-8" value="&lt;div&gt;confirmation&lt;/div&gt;&amp;nbsp;page" style="text;html=1;align=center;verticalAlign=middle;resizable=0;points=[];autosize=1;strokeColor=none;fillColor=none;" vertex="1" parent="1">
          <mxGeometry x="555" y="560" width="90" height="40" as="geometry" />
        </mxCell>
      </root>
    </mxGraphModel>
  </diagram>
</mxfile>
